ISO-10303-21;
HEADER;
/* Generated by software containing ST-Developer
 * from STEP Tools, Inc. (www.steptools.com) 
 */
/* OPTION: using custom renumber hook */

FILE_DESCRIPTION(
/* description */ ('STEP AP242 Edition 2',
'CAx-IF Rec.Pracs.---Representation and Presentation of Product Manufa
cturing Information (PMI)---4.0---2014-10-13',
'CAx-IF Rec.Pracs.---3D Tessellated Geometry---0.4---2014-09-14','2;1',
'CAx-IF Rec.Pracs.---User Defined Attributes---1.5---2016-08-15'),
/* implementation_level */ '2;1');

FILE_NAME(
/* name */ 'Part Studio 1',
/* time_stamp */ '2026-08-11T20:52:05Z',
/* author */ (''),
/* organization */ (''),
/* preprocessor_version */ 'ST-DEVELOPER v20',
/* originating_system */ 'ONSHAPE BY PTC INC, 1.219',
/* authorisation */ '  ');

FILE_SCHEMA (('AP242_MANAGED_MODEL_BASED_3D_ENGINEERING_MIM_LF { 1 0 10303 442 3 1 4 }'));
ENDSEC;

DATA;
#10=SHAPE_REPRESENTATION_RELATIONSHIP('','',#389,#11);
#11=ADVANCED_BREP_SHAPE_REPRESENTATION('',(#387),#657);
#12=SPHERICAL_SURFACE('',#404,0.005);
#13=SPHERICAL_SURFACE('',#415,0.005);
#14=SPHERICAL_SURFACE('',#417,0.005);
#15=SPHERICAL_SURFACE('',#423,0.005);
#16=CYLINDRICAL_SURFACE('',#402,0.005);
#17=CYLINDRICAL_SURFACE('',#407,0.005);
#18=CYLINDRICAL_SURFACE('',#409,0.005);
#19=CYLINDRICAL_SURFACE('',#411,0.005);
#20=CYLINDRICAL_SURFACE('',#413,0.005);
#21=CYLINDRICAL_SURFACE('',#419,0.005);
#22=CYLINDRICAL_SURFACE('',#421,0.005);
#23=CYLINDRICAL_SURFACE('',#425,0.005);
#24=CYLINDRICAL_SURFACE('',#432,0.015);
#25=CIRCLE('',#392,0.005);
#26=CIRCLE('',#393,0.005);
#27=CIRCLE('',#394,0.005);
#28=CIRCLE('',#395,0.005);
#29=CIRCLE('',#401,0.015);
#30=CIRCLE('',#403,0.005);
#31=CIRCLE('',#405,0.005);
#32=CIRCLE('',#406,0.005);
#33=CIRCLE('',#408,0.005);
#34=CIRCLE('',#410,0.005);
#35=CIRCLE('',#412,0.005);
#36=CIRCLE('',#414,0.005);
#37=CIRCLE('',#416,0.005);
#38=CIRCLE('',#418,0.005);
#39=CIRCLE('',#420,0.005);
#40=CIRCLE('',#422,0.005);
#41=CIRCLE('',#424,0.005);
#42=CIRCLE('',#431,0.015);
#43=ORIENTED_EDGE('',*,*,#143,.F.);
#44=ORIENTED_EDGE('',*,*,#144,.T.);
#45=ORIENTED_EDGE('',*,*,#145,.F.);
#46=ORIENTED_EDGE('',*,*,#146,.T.);
#47=ORIENTED_EDGE('',*,*,#147,.T.);
#48=ORIENTED_EDGE('',*,*,#148,.T.);
#49=ORIENTED_EDGE('',*,*,#149,.T.);
#50=ORIENTED_EDGE('',*,*,#150,.T.);
#51=ORIENTED_EDGE('',*,*,#151,.T.);
#52=ORIENTED_EDGE('',*,*,#152,.T.);
#53=ORIENTED_EDGE('',*,*,#153,.F.);
#54=ORIENTED_EDGE('',*,*,#154,.F.);
#55=ORIENTED_EDGE('',*,*,#155,.T.);
#56=ORIENTED_EDGE('',*,*,#156,.T.);
#57=ORIENTED_EDGE('',*,*,#147,.F.);
#58=ORIENTED_EDGE('',*,*,#157,.T.);
#59=ORIENTED_EDGE('',*,*,#145,.T.);
#60=ORIENTED_EDGE('',*,*,#158,.T.);
#61=ORIENTED_EDGE('',*,*,#159,.T.);
#62=ORIENTED_EDGE('',*,*,#160,.T.);
#63=ORIENTED_EDGE('',*,*,#161,.T.);
#64=ORIENTED_EDGE('',*,*,#162,.T.);
#65=ORIENTED_EDGE('',*,*,#143,.T.);
#66=ORIENTED_EDGE('',*,*,#163,.T.);
#67=ORIENTED_EDGE('',*,*,#164,.T.);
#68=ORIENTED_EDGE('',*,*,#165,.T.);
#69=ORIENTED_EDGE('',*,*,#149,.F.);
#70=ORIENTED_EDGE('',*,*,#166,.T.);
#71=ORIENTED_EDGE('',*,*,#167,.F.);
#72=ORIENTED_EDGE('',*,*,#168,.T.);
#73=ORIENTED_EDGE('',*,*,#169,.T.);
#74=ORIENTED_EDGE('',*,*,#170,.T.);
#75=ORIENTED_EDGE('',*,*,#171,.T.);
#76=ORIENTED_EDGE('',*,*,#172,.F.);
#77=ORIENTED_EDGE('',*,*,#166,.F.);
#78=ORIENTED_EDGE('',*,*,#148,.F.);
#79=ORIENTED_EDGE('',*,*,#156,.F.);
#80=ORIENTED_EDGE('',*,*,#173,.F.);
#81=ORIENTED_EDGE('',*,*,#172,.T.);
#82=ORIENTED_EDGE('',*,*,#174,.F.);
#83=ORIENTED_EDGE('',*,*,#146,.F.);
#84=ORIENTED_EDGE('',*,*,#160,.F.);
#85=ORIENTED_EDGE('',*,*,#175,.F.);
#86=ORIENTED_EDGE('',*,*,#157,.F.);
#87=ORIENTED_EDGE('',*,*,#174,.T.);
#88=ORIENTED_EDGE('',*,*,#155,.F.);
#89=ORIENTED_EDGE('',*,*,#176,.F.);
#90=ORIENTED_EDGE('',*,*,#168,.F.);
#91=ORIENTED_EDGE('',*,*,#173,.T.);
#92=ORIENTED_EDGE('',*,*,#171,.F.);
#93=ORIENTED_EDGE('',*,*,#177,.F.);
#94=ORIENTED_EDGE('',*,*,#164,.F.);
#95=ORIENTED_EDGE('',*,*,#150,.F.);
#96=ORIENTED_EDGE('',*,*,#165,.F.);
#97=ORIENTED_EDGE('',*,*,#178,.F.);
#98=ORIENTED_EDGE('',*,*,#163,.F.);
#99=ORIENTED_EDGE('',*,*,#176,.T.);
#100=ORIENTED_EDGE('',*,*,#175,.T.);
#101=ORIENTED_EDGE('',*,*,#179,.F.);
#102=ORIENTED_EDGE('',*,*,#178,.T.);
#103=ORIENTED_EDGE('',*,*,#177,.T.);
#104=ORIENTED_EDGE('',*,*,#180,.F.);
#105=ORIENTED_EDGE('',*,*,#179,.T.);
#106=ORIENTED_EDGE('',*,*,#159,.F.);
#107=ORIENTED_EDGE('',*,*,#181,.F.);
#108=ORIENTED_EDGE('',*,*,#169,.F.);
#109=ORIENTED_EDGE('',*,*,#180,.T.);
#110=ORIENTED_EDGE('',*,*,#170,.F.);
#111=ORIENTED_EDGE('',*,*,#182,.F.);
#112=ORIENTED_EDGE('',*,*,#161,.F.);
#113=ORIENTED_EDGE('',*,*,#182,.T.);
#114=ORIENTED_EDGE('',*,*,#181,.T.);
#115=ORIENTED_EDGE('',*,*,#183,.F.);
#116=ORIENTED_EDGE('',*,*,#183,.T.);
#117=ORIENTED_EDGE('',*,*,#158,.F.);
#118=ORIENTED_EDGE('',*,*,#144,.F.);
#119=ORIENTED_EDGE('',*,*,#162,.F.);
#120=ORIENTED_EDGE('',*,*,#151,.F.);
#121=ORIENTED_EDGE('',*,*,#184,.F.);
#122=ORIENTED_EDGE('',*,*,#185,.T.);
#123=ORIENTED_EDGE('',*,*,#186,.T.);
#124=ORIENTED_EDGE('',*,*,#154,.T.);
#125=ORIENTED_EDGE('',*,*,#187,.F.);
#126=ORIENTED_EDGE('',*,*,#188,.F.);
#127=ORIENTED_EDGE('',*,*,#184,.T.);
#128=ORIENTED_EDGE('',*,*,#153,.T.);
#129=ORIENTED_EDGE('',*,*,#189,.F.);
#130=ORIENTED_EDGE('',*,*,#190,.F.);
#131=ORIENTED_EDGE('',*,*,#187,.T.);
#132=ORIENTED_EDGE('',*,*,#152,.F.);
#133=ORIENTED_EDGE('',*,*,#186,.F.);
#134=ORIENTED_EDGE('',*,*,#191,.T.);
#135=ORIENTED_EDGE('',*,*,#189,.T.);
#136=ORIENTED_EDGE('',*,*,#192,.F.);
#137=ORIENTED_EDGE('',*,*,#185,.F.);
#138=ORIENTED_EDGE('',*,*,#188,.T.);
#139=ORIENTED_EDGE('',*,*,#190,.T.);
#140=ORIENTED_EDGE('',*,*,#191,.F.);
#141=ORIENTED_EDGE('',*,*,#192,.T.);
#142=ORIENTED_EDGE('',*,*,#167,.T.);
#143=EDGE_CURVE('',#193,#194,#223,.T.);
#144=EDGE_CURVE('',#193,#195,#25,.F.);
#145=EDGE_CURVE('',#196,#195,#224,.T.);
#146=EDGE_CURVE('',#196,#197,#26,.F.);
#147=EDGE_CURVE('',#197,#198,#225,.T.);
#148=EDGE_CURVE('',#198,#199,#27,.F.);
#149=EDGE_CURVE('',#199,#200,#226,.T.);
#150=EDGE_CURVE('',#200,#194,#28,.F.);
#151=EDGE_CURVE('',#201,#202,#227,.T.);
#152=EDGE_CURVE('',#202,#203,#228,.T.);
#153=EDGE_CURVE('',#204,#203,#229,.T.);
#154=EDGE_CURVE('',#201,#204,#230,.T.);
#155=EDGE_CURVE('',#205,#206,#231,.T.);
#156=EDGE_CURVE('',#206,#198,#232,.T.);
#157=EDGE_CURVE('',#197,#205,#233,.F.);
#158=EDGE_CURVE('',#195,#207,#234,.F.);
#159=EDGE_CURVE('',#207,#208,#235,.F.);
#160=EDGE_CURVE('',#208,#196,#236,.T.);
#161=EDGE_CURVE('',#209,#210,#237,.F.);
#162=EDGE_CURVE('',#210,#193,#238,.T.);
#163=EDGE_CURVE('',#194,#209,#239,.F.);
#164=EDGE_CURVE('',#211,#212,#240,.T.);
#165=EDGE_CURVE('',#212,#200,#241,.T.);
#166=EDGE_CURVE('',#199,#211,#242,.F.);
#167=EDGE_CURVE('',#213,#213,#29,.T.);
#168=EDGE_CURVE('',#214,#215,#243,.F.);
#169=EDGE_CURVE('',#215,#216,#244,.T.);
#170=EDGE_CURVE('',#216,#217,#245,.T.);
#171=EDGE_CURVE('',#217,#214,#246,.F.);
#172=EDGE_CURVE('',#211,#206,#30,.T.);
#173=EDGE_CURVE('',#211,#214,#31,.F.);
#174=EDGE_CURVE('',#214,#206,#32,.F.);
#175=EDGE_CURVE('',#205,#208,#33,.T.);
#176=EDGE_CURVE('',#215,#205,#34,.T.);
#177=EDGE_CURVE('',#212,#217,#35,.T.);
#178=EDGE_CURVE('',#209,#212,#36,.T.);
#179=EDGE_CURVE('',#215,#208,#37,.F.);
#180=EDGE_CURVE('',#209,#217,#38,.F.);
#181=EDGE_CURVE('',#216,#207,#39,.T.);
#182=EDGE_CURVE('',#210,#216,#40,.T.);
#183=EDGE_CURVE('',#210,#207,#41,.F.);
#184=EDGE_CURVE('',#218,#201,#247,.T.);
#185=EDGE_CURVE('',#218,#219,#248,.T.);
#186=EDGE_CURVE('',#219,#202,#249,.T.);
#187=EDGE_CURVE('',#220,#204,#250,.T.);
#188=EDGE_CURVE('',#218,#220,#251,.T.);
#189=EDGE_CURVE('',#221,#203,#252,.T.);
#190=EDGE_CURVE('',#220,#221,#253,.T.);
#191=EDGE_CURVE('',#219,#221,#254,.T.);
#192=EDGE_CURVE('',#222,#222,#42,.T.);
#193=VERTEX_POINT('',#554);
#194=VERTEX_POINT('',#555);
#195=VERTEX_POINT('',#557);
#196=VERTEX_POINT('',#559);
#197=VERTEX_POINT('',#561);
#198=VERTEX_POINT('',#563);
#199=VERTEX_POINT('',#565);
#200=VERTEX_POINT('',#567);
#201=VERTEX_POINT('',#570);
#202=VERTEX_POINT('',#571);
#203=VERTEX_POINT('',#573);
#204=VERTEX_POINT('',#575);
#205=VERTEX_POINT('',#579);
#206=VERTEX_POINT('',#580);
#207=VERTEX_POINT('',#585);
#208=VERTEX_POINT('',#587);
#209=VERTEX_POINT('',#591);
#210=VERTEX_POINT('',#592);
#211=VERTEX_POINT('',#597);
#212=VERTEX_POINT('',#598);
#213=VERTEX_POINT('',#603);
#214=VERTEX_POINT('',#605);
#215=VERTEX_POINT('',#606);
#216=VERTEX_POINT('',#608);
#217=VERTEX_POINT('',#610);
#218=VERTEX_POINT('',#638);
#219=VERTEX_POINT('',#640);
#220=VERTEX_POINT('',#644);
#221=VERTEX_POINT('',#648);
#222=VERTEX_POINT('',#654);
#223=LINE('',#553,#255);
#224=LINE('',#558,#256);
#225=LINE('',#562,#257);
#226=LINE('',#566,#258);
#227=LINE('',#569,#259);
#228=LINE('',#572,#260);
#229=LINE('',#574,#261);
#230=LINE('',#576,#262);
#231=LINE('',#578,#263);
#232=LINE('',#581,#264);
#233=LINE('',#582,#265);
#234=LINE('',#584,#266);
#235=LINE('',#586,#267);
#236=LINE('',#588,#268);
#237=LINE('',#590,#269);
#238=LINE('',#593,#270);
#239=LINE('',#594,#271);
#240=LINE('',#596,#272);
#241=LINE('',#599,#273);
#242=LINE('',#600,#274);
#243=LINE('',#604,#275);
#244=LINE('',#607,#276);
#245=LINE('',#609,#277);
#246=LINE('',#611,#278);
#247=LINE('',#637,#279);
#248=LINE('',#639,#280);
#249=LINE('',#641,#281);
#250=LINE('',#643,#282);
#251=LINE('',#645,#283);
#252=LINE('',#647,#284);
#253=LINE('',#649,#285);
#254=LINE('',#651,#286);
#255=VECTOR('',#437,1.);
#256=VECTOR('',#440,1.);
#257=VECTOR('',#443,1.);
#258=VECTOR('',#446,1.);
#259=VECTOR('',#449,1.);
#260=VECTOR('',#450,1.);
#261=VECTOR('',#451,1.);
#262=VECTOR('',#452,1.);
#263=VECTOR('',#455,1.);
#264=VECTOR('',#456,1.);
#265=VECTOR('',#457,1.);
#266=VECTOR('',#460,1.);
#267=VECTOR('',#461,1.);
#268=VECTOR('',#462,1.);
#269=VECTOR('',#465,1.);
#270=VECTOR('',#466,1.);
#271=VECTOR('',#467,1.);
#272=VECTOR('',#470,1.);
#273=VECTOR('',#471,1.);
#274=VECTOR('',#472,1.);
#275=VECTOR('',#477,1.);
#276=VECTOR('',#478,1.);
#277=VECTOR('',#479,1.);
#278=VECTOR('',#480,1.);
#279=VECTOR('',#531,1.);
#280=VECTOR('',#532,1.);
#281=VECTOR('',#533,1.);
#282=VECTOR('',#536,1.);
#283=VECTOR('',#537,1.);
#284=VECTOR('',#540,1.);
#285=VECTOR('',#541,1.);
#286=VECTOR('',#544,1.);
#287=EDGE_LOOP('',(#43,#44,#45,#46,#47,#48,#49,#50));
#288=EDGE_LOOP('',(#51,#52,#53,#54));
#289=EDGE_LOOP('',(#55,#56,#57,#58));
#290=EDGE_LOOP('',(#59,#60,#61,#62));
#291=EDGE_LOOP('',(#63,#64,#65,#66));
#292=EDGE_LOOP('',(#67,#68,#69,#70));
#293=EDGE_LOOP('',(#71));
#294=EDGE_LOOP('',(#72,#73,#74,#75));
#295=EDGE_LOOP('',(#76,#77,#78,#79));
#296=EDGE_LOOP('',(#80,#81,#82));
#297=EDGE_LOOP('',(#83,#84,#85,#86));
#298=EDGE_LOOP('',(#87,#88,#89,#90));
#299=EDGE_LOOP('',(#91,#92,#93,#94));
#300=EDGE_LOOP('',(#95,#96,#97,#98));
#301=EDGE_LOOP('',(#99,#100,#101));
#302=EDGE_LOOP('',(#102,#103,#104));
#303=EDGE_LOOP('',(#105,#106,#107,#108));
#304=EDGE_LOOP('',(#109,#110,#111,#112));
#305=EDGE_LOOP('',(#113,#114,#115));
#306=EDGE_LOOP('',(#116,#117,#118,#119));
#307=EDGE_LOOP('',(#120,#121,#122,#123));
#308=EDGE_LOOP('',(#124,#125,#126,#127));
#309=EDGE_LOOP('',(#128,#129,#130,#131));
#310=EDGE_LOOP('',(#132,#133,#134,#135));
#311=EDGE_LOOP('',(#136));
#312=EDGE_LOOP('',(#137,#138,#139,#140));
#313=EDGE_LOOP('',(#141));
#314=EDGE_LOOP('',(#142));
#315=FACE_BOUND('',#287,.T.);
#316=FACE_BOUND('',#288,.T.);
#317=FACE_BOUND('',#289,.T.);
#318=FACE_BOUND('',#290,.T.);
#319=FACE_BOUND('',#291,.T.);
#320=FACE_BOUND('',#292,.T.);
#321=FACE_BOUND('',#293,.T.);
#322=FACE_BOUND('',#294,.T.);
#323=FACE_BOUND('',#295,.T.);
#324=FACE_BOUND('',#296,.T.);
#325=FACE_BOUND('',#297,.T.);
#326=FACE_BOUND('',#298,.T.);
#327=FACE_BOUND('',#299,.T.);
#328=FACE_BOUND('',#300,.T.);
#329=FACE_BOUND('',#301,.T.);
#330=FACE_BOUND('',#302,.T.);
#331=FACE_BOUND('',#303,.T.);
#332=FACE_BOUND('',#304,.T.);
#333=FACE_BOUND('',#305,.T.);
#334=FACE_BOUND('',#306,.T.);
#335=FACE_BOUND('',#307,.T.);
#336=FACE_BOUND('',#308,.T.);
#337=FACE_BOUND('',#309,.T.);
#338=FACE_BOUND('',#310,.T.);
#339=FACE_BOUND('',#311,.T.);
#340=FACE_BOUND('',#312,.T.);
#341=FACE_BOUND('',#313,.T.);
#342=FACE_BOUND('',#314,.T.);
#343=PLANE('',#391);
#344=PLANE('',#396);
#345=PLANE('',#397);
#346=PLANE('',#398);
#347=PLANE('',#399);
#348=PLANE('',#400);
#349=PLANE('',#426);
#350=PLANE('',#427);
#351=PLANE('',#428);
#352=PLANE('',#429);
#353=PLANE('',#430);
#354=ADVANCED_FACE('',(#315,#316),#343,.F.);
#355=ADVANCED_FACE('',(#317),#344,.T.);
#356=ADVANCED_FACE('',(#318),#345,.F.);
#357=ADVANCED_FACE('',(#319),#346,.F.);
#358=ADVANCED_FACE('',(#320),#347,.T.);
#359=ADVANCED_FACE('',(#321,#322),#348,.T.);
#360=ADVANCED_FACE('',(#323),#16,.T.);
#361=ADVANCED_FACE('',(#324),#12,.T.);
#362=ADVANCED_FACE('',(#325),#17,.T.);
#363=ADVANCED_FACE('',(#326),#18,.T.);
#364=ADVANCED_FACE('',(#327),#19,.T.);
#365=ADVANCED_FACE('',(#328),#20,.T.);
#366=ADVANCED_FACE('',(#329),#13,.T.);
#367=ADVANCED_FACE('',(#330),#14,.T.);
#368=ADVANCED_FACE('',(#331),#21,.T.);
#369=ADVANCED_FACE('',(#332),#22,.T.);
#370=ADVANCED_FACE('',(#333),#15,.T.);
#371=ADVANCED_FACE('',(#334),#23,.T.);
#372=ADVANCED_FACE('',(#335),#349,.T.);
#373=ADVANCED_FACE('',(#336),#350,.F.);
#374=ADVANCED_FACE('',(#337),#351,.F.);
#375=ADVANCED_FACE('',(#338),#352,.T.);
#376=ADVANCED_FACE('',(#339,#340),#353,.T.);
#377=ADVANCED_FACE('',(#341,#342),#24,.F.);
#378=CLOSED_SHELL('',(#354,#355,#356,#357,#358,#359,#360,#361,#362,#363,
#364,#365,#366,#367,#368,#369,#370,#371,#372,#373,#374,#375,#376,#377));
#379=STYLED_ITEM('',(#380),#387);
#380=PRESENTATION_STYLE_ASSIGNMENT((#381));
#381=SURFACE_STYLE_USAGE(.BOTH.,#382);
#382=SURFACE_SIDE_STYLE('',(#383));
#383=SURFACE_STYLE_FILL_AREA(#384);
#384=FILL_AREA_STYLE('',(#385));
#385=FILL_AREA_STYLE_COLOUR('',#386);
#386=COLOUR_RGB('',0.615686274509804,0.811764705882353,0.929411764705882);
#387=MANIFOLD_SOLID_BREP('Part 1',#378);
#388=SHAPE_DEFINITION_REPRESENTATION(#662,#389);
#389=SHAPE_REPRESENTATION('Part 1',(#390),#657);
#390=AXIS2_PLACEMENT_3D('',#551,#433,#434);
#391=AXIS2_PLACEMENT_3D('',#552,#435,#436);
#392=AXIS2_PLACEMENT_3D('',#556,#438,#439);
#393=AXIS2_PLACEMENT_3D('',#560,#441,#442);
#394=AXIS2_PLACEMENT_3D('',#564,#444,#445);
#395=AXIS2_PLACEMENT_3D('',#568,#447,#448);
#396=AXIS2_PLACEMENT_3D('',#577,#453,#454);
#397=AXIS2_PLACEMENT_3D('',#583,#458,#459);
#398=AXIS2_PLACEMENT_3D('',#589,#463,#464);
#399=AXIS2_PLACEMENT_3D('',#595,#468,#469);
#400=AXIS2_PLACEMENT_3D('',#601,#473,#474);
#401=AXIS2_PLACEMENT_3D('',#602,#475,#476);
#402=AXIS2_PLACEMENT_3D('',#612,#481,#482);
#403=AXIS2_PLACEMENT_3D('',#613,#483,#484);
#404=AXIS2_PLACEMENT_3D('',#614,#485,#486);
#405=AXIS2_PLACEMENT_3D('',#615,#487,#488);
#406=AXIS2_PLACEMENT_3D('',#616,#489,#490);
#407=AXIS2_PLACEMENT_3D('',#617,#491,#492);
#408=AXIS2_PLACEMENT_3D('',#618,#493,#494);
#409=AXIS2_PLACEMENT_3D('',#619,#495,#496);
#410=AXIS2_PLACEMENT_3D('',#620,#497,#498);
#411=AXIS2_PLACEMENT_3D('',#621,#499,#500);
#412=AXIS2_PLACEMENT_3D('',#622,#501,#502);
#413=AXIS2_PLACEMENT_3D('',#623,#503,#504);
#414=AXIS2_PLACEMENT_3D('',#624,#505,#506);
#415=AXIS2_PLACEMENT_3D('',#625,#507,#508);
#416=AXIS2_PLACEMENT_3D('',#626,#509,#510);
#417=AXIS2_PLACEMENT_3D('',#627,#511,#512);
#418=AXIS2_PLACEMENT_3D('',#628,#513,#514);
#419=AXIS2_PLACEMENT_3D('',#629,#515,#516);
#420=AXIS2_PLACEMENT_3D('',#630,#517,#518);
#421=AXIS2_PLACEMENT_3D('',#631,#519,#520);
#422=AXIS2_PLACEMENT_3D('',#632,#521,#522);
#423=AXIS2_PLACEMENT_3D('',#633,#523,#524);
#424=AXIS2_PLACEMENT_3D('',#634,#525,#526);
#425=AXIS2_PLACEMENT_3D('',#635,#527,#528);
#426=AXIS2_PLACEMENT_3D('',#636,#529,#530);
#427=AXIS2_PLACEMENT_3D('',#642,#534,#535);
#428=AXIS2_PLACEMENT_3D('',#646,#538,#539);
#429=AXIS2_PLACEMENT_3D('',#650,#542,#543);
#430=AXIS2_PLACEMENT_3D('',#652,#545,#546);
#431=AXIS2_PLACEMENT_3D('',#653,#547,#548);
#432=AXIS2_PLACEMENT_3D('',#655,#549,#550);
#433=DIRECTION('',(0.,0.,1.));
#434=DIRECTION('',(1.,0.,0.));
#435=DIRECTION('',(0.,0.,1.));
#436=DIRECTION('',(1.,0.,0.));
#437=DIRECTION('',(-1.,0.,0.));
#438=DIRECTION('',(0.,0.,1.));
#439=DIRECTION('',(1.,0.,0.));
#440=DIRECTION('',(4.95635278850516E-17,1.,0.));
#441=DIRECTION('',(0.,0.,1.));
#442=DIRECTION('',(1.,0.,0.));
#443=DIRECTION('',(-1.,0.,0.));
#444=DIRECTION('',(0.,0.,1.));
#445=DIRECTION('',(1.,0.,0.));
#446=DIRECTION('',(4.95635278850516E-17,1.,0.));
#447=DIRECTION('',(0.,0.,1.));
#448=DIRECTION('',(1.,0.,0.));
#449=DIRECTION('',(-1.,0.,0.));
#450=DIRECTION('',(0.,-1.,0.));
#451=DIRECTION('',(-1.,0.,0.));
#452=DIRECTION('',(0.,-1.,0.));
#453=DIRECTION('',(0.,-1.,0.));
#454=DIRECTION('',(0.,0.,-1.));
#455=DIRECTION('',(-1.,0.,0.));
#456=DIRECTION('',(0.,0.,-1.));
#457=DIRECTION('',(0.,0.,-1.));
#458=DIRECTION('',(-1.,4.95635278850516E-17,0.));
#459=DIRECTION('',(-4.95635278850516E-17,-1.,0.));
#460=DIRECTION('',(0.,0.,-1.));
#461=DIRECTION('',(4.95635278850516E-17,1.,0.));
#462=DIRECTION('',(0.,0.,-1.));
#463=DIRECTION('',(0.,-1.,0.));
#464=DIRECTION('',(0.,0.,-1.));
#465=DIRECTION('',(-1.,0.,0.));
#466=DIRECTION('',(0.,0.,-1.));
#467=DIRECTION('',(0.,0.,-1.));
#468=DIRECTION('',(-1.,4.95635278850516E-17,0.));
#469=DIRECTION('',(-4.95635278850516E-17,-1.,0.));
#470=DIRECTION('',(4.95635278850516E-17,1.,0.));
#471=DIRECTION('',(0.,0.,-1.));
#472=DIRECTION('',(0.,0.,-1.));
#473=DIRECTION('',(0.,0.,1.));
#474=DIRECTION('',(1.,0.,0.));
#475=DIRECTION('',(0.,0.,1.));
#476=DIRECTION('',(1.,0.,0.));
#477=DIRECTION('',(-1.,0.,0.));
#478=DIRECTION('',(4.95635278850516E-17,1.,0.));
#479=DIRECTION('',(-1.,0.,0.));
#480=DIRECTION('',(4.95635278850516E-17,1.,0.));
#481=DIRECTION('',(0.,0.,-1.));
#482=DIRECTION('',(-1.,0.,0.));
#483=DIRECTION('',(0.,0.,1.));
#484=DIRECTION('',(1.,0.,0.));
#485=DIRECTION('',(6.93889390390723E-16,-1.,0.));
#486=DIRECTION('',(1.,6.93889390390723E-16,0.));
#487=DIRECTION('',(0.,-1.,0.));
#488=DIRECTION('',(0.,0.,-1.));
#489=DIRECTION('',(-1.,0.,-1.38777878078145E-15));
#490=DIRECTION('',(-1.38777878078145E-15,0.,1.));
#491=DIRECTION('',(0.,0.,1.));
#492=DIRECTION('',(1.,0.,0.));
#493=DIRECTION('',(0.,0.,1.));
#494=DIRECTION('',(1.,0.,0.));
#495=DIRECTION('',(-1.,0.,0.));
#496=DIRECTION('',(0.,0.,1.));
#497=DIRECTION('',(1.,0.,0.));
#498=DIRECTION('',(0.,0.,-1.));
#499=DIRECTION('',(4.95635278850516E-17,1.,0.));
#500=DIRECTION('',(-1.,4.95635278850516E-17,0.));
#501=DIRECTION('',(0.,1.,0.));
#502=DIRECTION('',(0.,0.,1.));
#503=DIRECTION('',(0.,0.,1.));
#504=DIRECTION('',(1.,0.,0.));
#505=DIRECTION('',(0.,0.,1.));
#506=DIRECTION('',(1.,0.,0.));
#507=DIRECTION('',(0.,-1.,0.));
#508=DIRECTION('',(0.,0.,-1.));
#509=DIRECTION('',(0.,-1.,0.));
#510=DIRECTION('',(0.,0.,-1.));
#511=DIRECTION('',(-1.,0.,0.));
#512=DIRECTION('',(0.,0.,1.));
#513=DIRECTION('',(-1.,0.,0.));
#514=DIRECTION('',(0.,0.,1.));
#515=DIRECTION('',(-4.95635278850516E-17,-1.,0.));
#516=DIRECTION('',(1.,-4.95635278850516E-17,0.));
#517=DIRECTION('',(0.,1.,0.));
#518=DIRECTION('',(0.,0.,1.));
#519=DIRECTION('',(1.,0.,0.));
#520=DIRECTION('',(0.,0.,-1.));
#521=DIRECTION('',(1.,0.,-1.38777878078145E-15));
#522=DIRECTION('',(-1.38777878078145E-15,0.,-1.));
#523=DIRECTION('',(6.93889390390723E-16,0.,1.));
#524=DIRECTION('',(1.,0.,-6.93889390390723E-16));
#525=DIRECTION('',(0.,0.,1.));
#526=DIRECTION('',(1.,0.,0.));
#527=DIRECTION('',(0.,0.,-1.));
#528=DIRECTION('',(-1.,0.,0.));
#529=DIRECTION('',(0.,-1.,0.));
#530=DIRECTION('',(0.,0.,-1.));
#531=DIRECTION('',(0.,0.,-1.));
#532=DIRECTION('',(-1.,0.,0.));
#533=DIRECTION('',(0.,0.,-1.));
#534=DIRECTION('',(1.,0.,0.));
#535=DIRECTION('',(0.,0.,-1.));
#536=DIRECTION('',(0.,0.,-1.));
#537=DIRECTION('',(0.,-1.,0.));
#538=DIRECTION('',(0.,-1.,0.));
#539=DIRECTION('',(0.,0.,-1.));
#540=DIRECTION('',(0.,0.,-1.));
#541=DIRECTION('',(-1.,0.,0.));
#542=DIRECTION('',(1.,0.,0.));
#543=DIRECTION('',(0.,0.,-1.));
#544=DIRECTION('',(0.,-1.,0.));
#545=DIRECTION('',(0.,0.,-1.));
#546=DIRECTION('',(1.,0.,0.));
#547=DIRECTION('',(0.,0.,-1.));
#548=DIRECTION('',(-1.,0.,0.));
#549=DIRECTION('',(0.,0.,1.));
#550=DIRECTION('',(1.,0.,0.));
#551=CARTESIAN_POINT('',(0.,0.,0.));
#552=CARTESIAN_POINT('',(0.,0.,0.));
#553=CARTESIAN_POINT('',(3.46944695195361E-18,0.035,0.));
#554=CARTESIAN_POINT('',(0.0175,0.035,0.));
#555=CARTESIAN_POINT('',(-0.0175,0.035,0.));
#556=CARTESIAN_POINT('',(0.0175,0.03,0.));
#557=CARTESIAN_POINT('',(0.0225,0.03,0.));
#558=CARTESIAN_POINT('',(0.0225,0.,0.));
#559=CARTESIAN_POINT('',(0.0225,-0.03,0.));
#560=CARTESIAN_POINT('',(0.0175,-0.03,0.));
#561=CARTESIAN_POINT('',(0.0175,-0.035,0.));
#562=CARTESIAN_POINT('',(0.,-0.035,0.));
#563=CARTESIAN_POINT('',(-0.0175,-0.035,0.));
#564=CARTESIAN_POINT('',(-0.0175,-0.03,0.));
#565=CARTESIAN_POINT('',(-0.0225,-0.03,0.));
#566=CARTESIAN_POINT('',(-0.0225,-6.93889390390723E-18,0.));
#567=CARTESIAN_POINT('',(-0.0225,0.03,0.));
#568=CARTESIAN_POINT('',(-0.0175,0.03,0.));
#569=CARTESIAN_POINT('',(0.,0.03,0.));
#570=CARTESIAN_POINT('',(0.0175,0.03,0.));
#571=CARTESIAN_POINT('',(-0.0175,0.03,0.));
#572=CARTESIAN_POINT('',(-0.0175,0.,0.));
#573=CARTESIAN_POINT('',(-0.0175,-0.03,0.));
#574=CARTESIAN_POINT('',(0.,-0.03,0.));
#575=CARTESIAN_POINT('',(0.0175,-0.03,0.));
#576=CARTESIAN_POINT('',(0.0175,0.,0.));
#577=CARTESIAN_POINT('',(0.,-0.035,0.021));
#578=CARTESIAN_POINT('',(0.,-0.035,0.016));
#579=CARTESIAN_POINT('',(0.0175,-0.035,0.016));
#580=CARTESIAN_POINT('',(-0.0175,-0.035,0.016));
#581=CARTESIAN_POINT('',(-0.0175,-0.035,0.021));
#582=CARTESIAN_POINT('',(0.0175,-0.035,0.021));
#583=CARTESIAN_POINT('',(0.0225,0.,0.021));
#584=CARTESIAN_POINT('',(0.0225,0.03,0.021));
#585=CARTESIAN_POINT('',(0.0225,0.03,0.016));
#586=CARTESIAN_POINT('',(0.0225,-0.035,0.016));
#587=CARTESIAN_POINT('',(0.0225,-0.03,0.016));
#588=CARTESIAN_POINT('',(0.0225,-0.03,0.));
#589=CARTESIAN_POINT('',(3.46944695195361E-18,0.035,0.021));
#590=CARTESIAN_POINT('',(0.0225,0.035,0.016));
#591=CARTESIAN_POINT('',(-0.0175,0.035,0.016));
#592=CARTESIAN_POINT('',(0.0175,0.035,0.016));
#593=CARTESIAN_POINT('',(0.0175,0.035,0.021));
#594=CARTESIAN_POINT('',(-0.0175,0.035,0.021));
#595=CARTESIAN_POINT('',(-0.0225,-6.93889390390723E-18,0.021));
#596=CARTESIAN_POINT('',(-0.0225,-6.93889390390723E-18,0.016));
#597=CARTESIAN_POINT('',(-0.0225,-0.03,0.016));
#598=CARTESIAN_POINT('',(-0.0225,0.03,0.016));
#599=CARTESIAN_POINT('',(-0.0225,0.03,0.));
#600=CARTESIAN_POINT('',(-0.0225,-0.03,0.021));
#601=CARTESIAN_POINT('',(0.,0.,0.021));
#602=CARTESIAN_POINT('',(0.,0.014,0.021));
#603=CARTESIAN_POINT('',(0.015,0.014,0.021));
#604=CARTESIAN_POINT('',(0.,-0.03,0.021));
#605=CARTESIAN_POINT('',(-0.0175,-0.03,0.021));
#606=CARTESIAN_POINT('',(0.0175,-0.03,0.021));
#607=CARTESIAN_POINT('',(0.0175,0.035,0.021));
#608=CARTESIAN_POINT('',(0.0175,0.03,0.021));
#609=CARTESIAN_POINT('',(-0.0225,0.03,0.021));
#610=CARTESIAN_POINT('',(-0.0175,0.03,0.021));
#611=CARTESIAN_POINT('',(-0.0175,8.67361737988404E-19,0.021));
#612=CARTESIAN_POINT('',(-0.0175,-0.03,0.021));
#613=CARTESIAN_POINT('',(-0.0175,-0.03,0.016));
#614=CARTESIAN_POINT('',(-0.0175,-0.03,0.016));
#615=CARTESIAN_POINT('',(-0.0175,-0.03,0.016));
#616=CARTESIAN_POINT('',(-0.0175,-0.03,0.016));
#617=CARTESIAN_POINT('',(0.0175,-0.03,0.021));
#618=CARTESIAN_POINT('',(0.0175,-0.03,0.016));
#619=CARTESIAN_POINT('',(0.,-0.03,0.016));
#620=CARTESIAN_POINT('',(0.0175,-0.03,0.016));
#621=CARTESIAN_POINT('',(-0.0175,-7.18671154333249E-18,0.016));
#622=CARTESIAN_POINT('',(-0.0175,0.03,0.016));
#623=CARTESIAN_POINT('',(-0.0175,0.03,0.021));
#624=CARTESIAN_POINT('',(-0.0175,0.03,0.016));
#625=CARTESIAN_POINT('',(0.0175,-0.03,0.016));
#626=CARTESIAN_POINT('',(0.0175,-0.03,0.016));
#627=CARTESIAN_POINT('',(-0.0175,0.03,0.016));
#628=CARTESIAN_POINT('',(-0.0175,0.03,0.016));
#629=CARTESIAN_POINT('',(0.0175,-8.67361737988404E-19,0.016));
#630=CARTESIAN_POINT('',(0.0175,0.03,0.016));
#631=CARTESIAN_POINT('',(0.,0.03,0.016));
#632=CARTESIAN_POINT('',(0.0175,0.03,0.016));
#633=CARTESIAN_POINT('',(0.0175,0.03,0.016));
#634=CARTESIAN_POINT('',(0.0175,0.03,0.016));
#635=CARTESIAN_POINT('',(0.0175,0.03,0.021));
#636=CARTESIAN_POINT('',(0.,0.03,0.019));
#637=CARTESIAN_POINT('',(0.0175,0.03,0.019));
#638=CARTESIAN_POINT('',(0.0175,0.03,0.019));
#639=CARTESIAN_POINT('',(0.,0.03,0.019));
#640=CARTESIAN_POINT('',(-0.0175,0.03,0.019));
#641=CARTESIAN_POINT('',(-0.0175,0.03,0.019));
#642=CARTESIAN_POINT('',(0.0175,0.,0.019));
#643=CARTESIAN_POINT('',(0.0175,-0.03,0.019));
#644=CARTESIAN_POINT('',(0.0175,-0.03,0.019));
#645=CARTESIAN_POINT('',(0.0175,0.,0.019));
#646=CARTESIAN_POINT('',(0.,-0.03,0.019));
#647=CARTESIAN_POINT('',(-0.0175,-0.03,0.019));
#648=CARTESIAN_POINT('',(-0.0175,-0.03,0.019));
#649=CARTESIAN_POINT('',(0.,-0.03,0.019));
#650=CARTESIAN_POINT('',(-0.0175,0.,0.019));
#651=CARTESIAN_POINT('',(-0.0175,0.,0.019));
#652=CARTESIAN_POINT('',(0.,0.,0.019));
#653=CARTESIAN_POINT('',(0.,0.014,0.019));
#654=CARTESIAN_POINT('',(-0.015,0.014,0.019));
#655=CARTESIAN_POINT('',(0.,0.014,-0.0156));
#656=MECHANICAL_DESIGN_GEOMETRIC_PRESENTATION_REPRESENTATION('',(#379),
#657);
#657=(
GEOMETRIC_REPRESENTATION_CONTEXT(3)
GLOBAL_UNCERTAINTY_ASSIGNED_CONTEXT((#658))
GLOBAL_UNIT_ASSIGNED_CONTEXT((#661,#660,#659))
REPRESENTATION_CONTEXT('Part 1','TOP_LEVEL_ASSEMBLY_PART')
);
#658=UNCERTAINTY_MEASURE_WITH_UNIT(LENGTH_MEASURE(1.E-8),#661,
'DISTANCE_ACCURACY_VALUE','Maximum Tolerance applied to model');
#659=(
NAMED_UNIT(*)
SI_UNIT($,.STERADIAN.)
SOLID_ANGLE_UNIT()
);
#660=(
NAMED_UNIT(*)
PLANE_ANGLE_UNIT()
SI_UNIT($,.RADIAN.)
);
#661=(
LENGTH_UNIT()
NAMED_UNIT(*)
SI_UNIT($,.METRE.)
);
#662=PRODUCT_DEFINITION_SHAPE('','',#663);
#663=PRODUCT_DEFINITION('','',#665,#664);
#664=PRODUCT_DEFINITION_CONTEXT('',#671,'design');
#665=PRODUCT_DEFINITION_FORMATION_WITH_SPECIFIED_SOURCE('','',#667,
 .NOT_KNOWN.);
#666=PRODUCT_RELATED_PRODUCT_CATEGORY('','',(#667));
#667=PRODUCT('Part 1','Part 1','Part 1',(#669));
#668=PRODUCT_CATEGORY('','');
#669=PRODUCT_CONTEXT('',#671,'mechanical');
#670=APPLICATION_PROTOCOL_DEFINITION('international standard',
'ap242_managed_model_based_3d_engineering',2020,#671);
#671=APPLICATION_CONTEXT('managed model based 3d engineering');
ENDSEC;
END-ISO-10303-21;
