ISO-10303-21;
HEADER;
/* Generated by software containing ST-Developer
 * from STEP Tools, Inc. (www.steptools.com) 
 */
/* OPTION: using custom renumber hook */

FILE_DESCRIPTION(
/* description */ ('STEP AP242 Edition 2',
'CAx-IF Rec.Pracs.---Representation and Presentation of Product Manufa
cturing Information (PMI)---4.0---2014-10-13',
'CAx-IF Rec.Pracs.---3D Tessellated Geometry---0.4---2014-09-14','2;1',
'CAx-IF Rec.Pracs.---User Defined Attributes---1.5---2016-08-15'),
/* implementation_level */ '2;1');

FILE_NAME(
/* name */ 'Part Studio 1',
/* time_stamp */ '2026-08-11T20:52:55Z',
/* author */ (''),
/* organization */ (''),
/* preprocessor_version */ 'ST-DEVELOPER v20',
/* originating_system */ 'ONSHAPE BY PTC INC, 1.219',
/* authorisation */ '  ');

FILE_SCHEMA (('AP242_MANAGED_MODEL_BASED_3D_ENGINEERING_MIM_LF { 1 0 10303 442 3 1 4 }'));
ENDSEC;

DATA;
#10=SHAPE_REPRESENTATION_RELATIONSHIP('','',#228,#11);
#11=ADVANCED_BREP_SHAPE_REPRESENTATION('',(#226),#358);
#12=CYLINDRICAL_SURFACE('',#243,0.0055);
#13=CIRCLE('',#236,0.0055);
#14=CIRCLE('',#242,0.0055);
#15=ORIENTED_EDGE('',*,*,#69,.T.);
#16=ORIENTED_EDGE('',*,*,#70,.T.);
#17=ORIENTED_EDGE('',*,*,#71,.F.);
#18=ORIENTED_EDGE('',*,*,#72,.F.);
#19=ORIENTED_EDGE('',*,*,#73,.T.);
#20=ORIENTED_EDGE('',*,*,#74,.T.);
#21=ORIENTED_EDGE('',*,*,#75,.F.);
#22=ORIENTED_EDGE('',*,*,#76,.F.);
#23=ORIENTED_EDGE('',*,*,#69,.F.);
#24=ORIENTED_EDGE('',*,*,#77,.F.);
#25=ORIENTED_EDGE('',*,*,#78,.T.);
#26=ORIENTED_EDGE('',*,*,#79,.T.);
#27=ORIENTED_EDGE('',*,*,#72,.T.);
#28=ORIENTED_EDGE('',*,*,#80,.F.);
#29=ORIENTED_EDGE('',*,*,#81,.F.);
#30=ORIENTED_EDGE('',*,*,#77,.T.);
#31=ORIENTED_EDGE('',*,*,#71,.T.);
#32=ORIENTED_EDGE('',*,*,#82,.F.);
#33=ORIENTED_EDGE('',*,*,#83,.F.);
#34=ORIENTED_EDGE('',*,*,#80,.T.);
#35=ORIENTED_EDGE('',*,*,#70,.F.);
#36=ORIENTED_EDGE('',*,*,#79,.F.);
#37=ORIENTED_EDGE('',*,*,#84,.T.);
#38=ORIENTED_EDGE('',*,*,#82,.T.);
#39=ORIENTED_EDGE('',*,*,#85,.F.);
#40=ORIENTED_EDGE('',*,*,#78,.F.);
#41=ORIENTED_EDGE('',*,*,#81,.T.);
#42=ORIENTED_EDGE('',*,*,#83,.T.);
#43=ORIENTED_EDGE('',*,*,#84,.F.);
#44=ORIENTED_EDGE('',*,*,#86,.T.);
#45=ORIENTED_EDGE('',*,*,#87,.T.);
#46=ORIENTED_EDGE('',*,*,#88,.T.);
#47=ORIENTED_EDGE('',*,*,#73,.F.);
#48=ORIENTED_EDGE('',*,*,#89,.F.);
#49=ORIENTED_EDGE('',*,*,#76,.T.);
#50=ORIENTED_EDGE('',*,*,#90,.F.);
#51=ORIENTED_EDGE('',*,*,#91,.F.);
#52=ORIENTED_EDGE('',*,*,#89,.T.);
#53=ORIENTED_EDGE('',*,*,#75,.T.);
#54=ORIENTED_EDGE('',*,*,#92,.F.);
#55=ORIENTED_EDGE('',*,*,#93,.F.);
#56=ORIENTED_EDGE('',*,*,#90,.T.);
#57=ORIENTED_EDGE('',*,*,#74,.F.);
#58=ORIENTED_EDGE('',*,*,#88,.F.);
#59=ORIENTED_EDGE('',*,*,#94,.T.);
#60=ORIENTED_EDGE('',*,*,#92,.T.);
#61=ORIENTED_EDGE('',*,*,#87,.F.);
#62=ORIENTED_EDGE('',*,*,#95,.F.);
#63=ORIENTED_EDGE('',*,*,#86,.F.);
#64=ORIENTED_EDGE('',*,*,#91,.T.);
#65=ORIENTED_EDGE('',*,*,#93,.T.);
#66=ORIENTED_EDGE('',*,*,#94,.F.);
#67=ORIENTED_EDGE('',*,*,#95,.T.);
#68=ORIENTED_EDGE('',*,*,#85,.T.);
#69=EDGE_CURVE('',#96,#97,#114,.T.);
#70=EDGE_CURVE('',#97,#98,#115,.T.);
#71=EDGE_CURVE('',#99,#98,#116,.T.);
#72=EDGE_CURVE('',#96,#99,#117,.T.);
#73=EDGE_CURVE('',#100,#101,#118,.T.);
#74=EDGE_CURVE('',#101,#102,#119,.T.);
#75=EDGE_CURVE('',#103,#102,#120,.T.);
#76=EDGE_CURVE('',#100,#103,#121,.T.);
#77=EDGE_CURVE('',#104,#96,#122,.T.);
#78=EDGE_CURVE('',#104,#105,#123,.T.);
#79=EDGE_CURVE('',#105,#97,#124,.T.);
#80=EDGE_CURVE('',#106,#99,#125,.T.);
#81=EDGE_CURVE('',#104,#106,#126,.T.);
#82=EDGE_CURVE('',#107,#98,#127,.T.);
#83=EDGE_CURVE('',#106,#107,#128,.T.);
#84=EDGE_CURVE('',#105,#107,#129,.T.);
#85=EDGE_CURVE('',#108,#108,#13,.T.);
#86=EDGE_CURVE('',#109,#110,#130,.T.);
#87=EDGE_CURVE('',#110,#111,#131,.T.);
#88=EDGE_CURVE('',#111,#101,#132,.T.);
#89=EDGE_CURVE('',#109,#100,#133,.T.);
#90=EDGE_CURVE('',#112,#103,#134,.T.);
#91=EDGE_CURVE('',#109,#112,#135,.T.);
#92=EDGE_CURVE('',#113,#102,#136,.T.);
#93=EDGE_CURVE('',#112,#113,#137,.T.);
#94=EDGE_CURVE('',#111,#113,#138,.T.);
#95=EDGE_CURVE('',#110,#110,#14,.T.);
#96=VERTEX_POINT('',#302);
#97=VERTEX_POINT('',#303);
#98=VERTEX_POINT('',#305);
#99=VERTEX_POINT('',#307);
#100=VERTEX_POINT('',#310);
#101=VERTEX_POINT('',#311);
#102=VERTEX_POINT('',#313);
#103=VERTEX_POINT('',#315);
#104=VERTEX_POINT('',#319);
#105=VERTEX_POINT('',#321);
#106=VERTEX_POINT('',#325);
#107=VERTEX_POINT('',#329);
#108=VERTEX_POINT('',#335);
#109=VERTEX_POINT('',#338);
#110=VERTEX_POINT('',#339);
#111=VERTEX_POINT('',#341);
#112=VERTEX_POINT('',#346);
#113=VERTEX_POINT('',#350);
#114=LINE('',#301,#139);
#115=LINE('',#304,#140);
#116=LINE('',#306,#141);
#117=LINE('',#308,#142);
#118=LINE('',#309,#143);
#119=LINE('',#312,#144);
#120=LINE('',#314,#145);
#121=LINE('',#316,#146);
#122=LINE('',#318,#147);
#123=LINE('',#320,#148);
#124=LINE('',#322,#149);
#125=LINE('',#324,#150);
#126=LINE('',#326,#151);
#127=LINE('',#328,#152);
#128=LINE('',#330,#153);
#129=LINE('',#332,#154);
#130=LINE('',#337,#155);
#131=LINE('',#340,#156);
#132=LINE('',#342,#157);
#133=LINE('',#343,#158);
#134=LINE('',#345,#159);
#135=LINE('',#347,#160);
#136=LINE('',#349,#161);
#137=LINE('',#351,#162);
#138=LINE('',#353,#163);
#139=VECTOR('',#248,1.);
#140=VECTOR('',#249,1.);
#141=VECTOR('',#250,1.);
#142=VECTOR('',#251,1.);
#143=VECTOR('',#252,1.);
#144=VECTOR('',#253,1.);
#145=VECTOR('',#254,1.);
#146=VECTOR('',#255,1.);
#147=VECTOR('',#258,1.);
#148=VECTOR('',#259,1.);
#149=VECTOR('',#260,1.);
#150=VECTOR('',#263,1.);
#151=VECTOR('',#264,1.);
#152=VECTOR('',#267,1.);
#153=VECTOR('',#268,1.);
#154=VECTOR('',#271,1.);
#155=VECTOR('',#278,1.);
#156=VECTOR('',#279,1.);
#157=VECTOR('',#280,1.);
#158=VECTOR('',#281,1.);
#159=VECTOR('',#284,1.);
#160=VECTOR('',#285,1.);
#161=VECTOR('',#288,1.);
#162=VECTOR('',#289,1.);
#163=VECTOR('',#292,1.);
#164=EDGE_LOOP('',(#15,#16,#17,#18));
#165=EDGE_LOOP('',(#19,#20,#21,#22));
#166=EDGE_LOOP('',(#23,#24,#25,#26));
#167=EDGE_LOOP('',(#27,#28,#29,#30));
#168=EDGE_LOOP('',(#31,#32,#33,#34));
#169=EDGE_LOOP('',(#35,#36,#37,#38));
#170=EDGE_LOOP('',(#39));
#171=EDGE_LOOP('',(#40,#41,#42,#43));
#172=EDGE_LOOP('',(#44,#45,#46,#47,#48));
#173=EDGE_LOOP('',(#49,#50,#51,#52));
#174=EDGE_LOOP('',(#53,#54,#55,#56));
#175=EDGE_LOOP('',(#57,#58,#59,#60));
#176=EDGE_LOOP('',(#61,#62,#63,#64,#65,#66));
#177=EDGE_LOOP('',(#67));
#178=EDGE_LOOP('',(#68));
#179=FACE_BOUND('',#164,.T.);
#180=FACE_BOUND('',#165,.T.);
#181=FACE_BOUND('',#166,.T.);
#182=FACE_BOUND('',#167,.T.);
#183=FACE_BOUND('',#168,.T.);
#184=FACE_BOUND('',#169,.T.);
#185=FACE_BOUND('',#170,.T.);
#186=FACE_BOUND('',#171,.T.);
#187=FACE_BOUND('',#172,.T.);
#188=FACE_BOUND('',#173,.T.);
#189=FACE_BOUND('',#174,.T.);
#190=FACE_BOUND('',#175,.T.);
#191=FACE_BOUND('',#176,.T.);
#192=FACE_BOUND('',#177,.T.);
#193=FACE_BOUND('',#178,.T.);
#194=PLANE('',#230);
#195=PLANE('',#231);
#196=PLANE('',#232);
#197=PLANE('',#233);
#198=PLANE('',#234);
#199=PLANE('',#235);
#200=PLANE('',#237);
#201=PLANE('',#238);
#202=PLANE('',#239);
#203=PLANE('',#240);
#204=PLANE('',#241);
#205=ADVANCED_FACE('',(#179,#180),#194,.F.);
#206=ADVANCED_FACE('',(#181),#195,.T.);
#207=ADVANCED_FACE('',(#182),#196,.F.);
#208=ADVANCED_FACE('',(#183),#197,.F.);
#209=ADVANCED_FACE('',(#184),#198,.T.);
#210=ADVANCED_FACE('',(#185,#186),#199,.T.);
#211=ADVANCED_FACE('',(#187),#200,.T.);
#212=ADVANCED_FACE('',(#188),#201,.F.);
#213=ADVANCED_FACE('',(#189),#202,.F.);
#214=ADVANCED_FACE('',(#190),#203,.T.);
#215=ADVANCED_FACE('',(#191),#204,.T.);
#216=ADVANCED_FACE('',(#192,#193),#12,.F.);
#217=CLOSED_SHELL('',(#205,#206,#207,#208,#209,#210,#211,#212,#213,#214,
#215,#216));
#218=STYLED_ITEM('',(#219),#226);
#219=PRESENTATION_STYLE_ASSIGNMENT((#220));
#220=SURFACE_STYLE_USAGE(.BOTH.,#221);
#221=SURFACE_SIDE_STYLE('',(#222));
#222=SURFACE_STYLE_FILL_AREA(#223);
#223=FILL_AREA_STYLE('',(#224));
#224=FILL_AREA_STYLE_COLOUR('',#225);
#225=COLOUR_RGB('',0.615686274509804,0.811764705882353,0.929411764705882);
#226=MANIFOLD_SOLID_BREP('Part 1',#217);
#227=SHAPE_DEFINITION_REPRESENTATION(#363,#228);
#228=SHAPE_REPRESENTATION('Part 1',(#229),#358);
#229=AXIS2_PLACEMENT_3D('',#299,#244,#245);
#230=AXIS2_PLACEMENT_3D('',#300,#246,#247);
#231=AXIS2_PLACEMENT_3D('',#317,#256,#257);
#232=AXIS2_PLACEMENT_3D('',#323,#261,#262);
#233=AXIS2_PLACEMENT_3D('',#327,#265,#266);
#234=AXIS2_PLACEMENT_3D('',#331,#269,#270);
#235=AXIS2_PLACEMENT_3D('',#333,#272,#273);
#236=AXIS2_PLACEMENT_3D('',#334,#274,#275);
#237=AXIS2_PLACEMENT_3D('',#336,#276,#277);
#238=AXIS2_PLACEMENT_3D('',#344,#282,#283);
#239=AXIS2_PLACEMENT_3D('',#348,#286,#287);
#240=AXIS2_PLACEMENT_3D('',#352,#290,#291);
#241=AXIS2_PLACEMENT_3D('',#354,#293,#294);
#242=AXIS2_PLACEMENT_3D('',#355,#295,#296);
#243=AXIS2_PLACEMENT_3D('',#356,#297,#298);
#244=DIRECTION('',(0.,0.,1.));
#245=DIRECTION('',(1.,0.,0.));
#246=DIRECTION('',(0.,0.,1.));
#247=DIRECTION('',(1.,0.,0.));
#248=DIRECTION('',(-1.,-1.15648231731787E-16,0.));
#249=DIRECTION('',(5.78241158658936E-17,1.,0.));
#250=DIRECTION('',(-1.,-1.15648231731787E-16,0.));
#251=DIRECTION('',(5.78241158658936E-17,1.,0.));
#252=DIRECTION('',(-1.,-1.7347234759768E-16,0.));
#253=DIRECTION('',(-1.7347234759768E-16,-1.,0.));
#254=DIRECTION('',(-1.,-1.7347234759768E-16,0.));
#255=DIRECTION('',(-1.7347234759768E-16,-1.,0.));
#256=DIRECTION('',(1.15648231731787E-16,-1.,0.));
#257=DIRECTION('',(1.,1.15648231731787E-16,0.));
#258=DIRECTION('',(0.,0.,-1.));
#259=DIRECTION('',(-1.,-1.15648231731787E-16,0.));
#260=DIRECTION('',(0.,0.,-1.));
#261=DIRECTION('',(-1.,5.78241158658936E-17,0.));
#262=DIRECTION('',(-5.78241158658936E-17,-1.,0.));
#263=DIRECTION('',(0.,0.,-1.));
#264=DIRECTION('',(5.78241158658936E-17,1.,0.));
#265=DIRECTION('',(1.15648231731787E-16,-1.,0.));
#266=DIRECTION('',(1.,1.15648231731787E-16,0.));
#267=DIRECTION('',(0.,0.,-1.));
#268=DIRECTION('',(-1.,-1.15648231731787E-16,0.));
#269=DIRECTION('',(-1.,5.78241158658936E-17,0.));
#270=DIRECTION('',(-5.78241158658936E-17,-1.,0.));
#271=DIRECTION('',(5.78241158658936E-17,1.,0.));
#272=DIRECTION('',(0.,0.,1.));
#273=DIRECTION('',(1.,0.,0.));
#274=DIRECTION('',(0.,0.,1.));
#275=DIRECTION('',(1.,0.,0.));
#276=DIRECTION('',(1.7347234759768E-16,-1.,0.));
#277=DIRECTION('',(1.,1.7347234759768E-16,0.));
#278=DIRECTION('',(-1.,-1.7347234759768E-16,0.));
#279=DIRECTION('',(-1.,-1.7347234759768E-16,0.));
#280=DIRECTION('',(0.,0.,-1.));
#281=DIRECTION('',(0.,0.,-1.));
#282=DIRECTION('',(1.,-1.7347234759768E-16,0.));
#283=DIRECTION('',(1.7347234759768E-16,1.,0.));
#284=DIRECTION('',(0.,0.,-1.));
#285=DIRECTION('',(-1.7347234759768E-16,-1.,0.));
#286=DIRECTION('',(1.7347234759768E-16,-1.,0.));
#287=DIRECTION('',(1.,1.7347234759768E-16,0.));
#288=DIRECTION('',(0.,0.,-1.));
#289=DIRECTION('',(-1.,-1.7347234759768E-16,0.));
#290=DIRECTION('',(1.,-1.7347234759768E-16,0.));
#291=DIRECTION('',(1.7347234759768E-16,1.,0.));
#292=DIRECTION('',(-1.7347234759768E-16,-1.,0.));
#293=DIRECTION('',(0.,0.,-1.));
#294=DIRECTION('',(1.,0.,0.));
#295=DIRECTION('',(0.,0.,-1.));
#296=DIRECTION('',(-1.,0.,0.));
#297=DIRECTION('',(0.,0.,1.));
#298=DIRECTION('',(1.,0.,0.));
#299=CARTESIAN_POINT('',(0.,0.,0.));
#300=CARTESIAN_POINT('',(0.,0.,0.));
#301=CARTESIAN_POINT('',(0.,-0.015,0.));
#302=CARTESIAN_POINT('',(0.015,-0.015,0.));
#303=CARTESIAN_POINT('',(-0.015,-0.015,0.));
#304=CARTESIAN_POINT('',(-0.015,-3.46944695195361E-18,0.));
#305=CARTESIAN_POINT('',(-0.015,0.015,0.));
#306=CARTESIAN_POINT('',(0.,0.015,0.));
#307=CARTESIAN_POINT('',(0.015,0.015,0.));
#308=CARTESIAN_POINT('',(0.015,3.46944695195361E-18,0.));
#309=CARTESIAN_POINT('',(-1.7347234759768E-18,0.01,0.));
#310=CARTESIAN_POINT('',(0.01,0.01,0.));
#311=CARTESIAN_POINT('',(-0.01,0.01,0.));
#312=CARTESIAN_POINT('',(-0.01,0.,0.));
#313=CARTESIAN_POINT('',(-0.01,-0.01,0.));
#314=CARTESIAN_POINT('',(3.46944695195361E-18,-0.01,0.));
#315=CARTESIAN_POINT('',(0.01,-0.01,0.));
#316=CARTESIAN_POINT('',(0.01,1.7347234759768E-18,0.));
#317=CARTESIAN_POINT('',(0.,-0.015,0.013));
#318=CARTESIAN_POINT('',(0.015,-0.015,0.013));
#319=CARTESIAN_POINT('',(0.015,-0.015,0.013));
#320=CARTESIAN_POINT('',(0.,-0.015,0.013));
#321=CARTESIAN_POINT('',(-0.015,-0.015,0.013));
#322=CARTESIAN_POINT('',(-0.015,-0.015,0.013));
#323=CARTESIAN_POINT('',(0.015,3.46944695195361E-18,0.013));
#324=CARTESIAN_POINT('',(0.015,0.015,0.013));
#325=CARTESIAN_POINT('',(0.015,0.015,0.013));
#326=CARTESIAN_POINT('',(0.015,3.46944695195361E-18,0.013));
#327=CARTESIAN_POINT('',(0.,0.015,0.013));
#328=CARTESIAN_POINT('',(-0.015,0.015,0.013));
#329=CARTESIAN_POINT('',(-0.015,0.015,0.013));
#330=CARTESIAN_POINT('',(0.,0.015,0.013));
#331=CARTESIAN_POINT('',(-0.015,-3.46944695195361E-18,0.013));
#332=CARTESIAN_POINT('',(-0.015,-3.46944695195361E-18,0.013));
#333=CARTESIAN_POINT('',(0.,0.,0.013));
#334=CARTESIAN_POINT('',(0.,0.0045,0.013));
#335=CARTESIAN_POINT('',(0.0055,0.0045,0.013));
#336=CARTESIAN_POINT('',(-1.7347234759768E-18,0.01,0.009));
#337=CARTESIAN_POINT('',(-1.7347234759768E-18,0.01,0.009));
#338=CARTESIAN_POINT('',(0.01,0.01,0.009));
#339=CARTESIAN_POINT('',(-9.54097911787244E-19,0.01,0.009));
#340=CARTESIAN_POINT('',(-1.7347234759768E-18,0.01,0.009));
#341=CARTESIAN_POINT('',(-0.01,0.01,0.009));
#342=CARTESIAN_POINT('',(-0.01,0.01,0.009));
#343=CARTESIAN_POINT('',(0.01,0.01,0.009));
#344=CARTESIAN_POINT('',(0.01,1.7347234759768E-18,0.009));
#345=CARTESIAN_POINT('',(0.01,-0.01,0.009));
#346=CARTESIAN_POINT('',(0.01,-0.01,0.009));
#347=CARTESIAN_POINT('',(0.01,1.7347234759768E-18,0.009));
#348=CARTESIAN_POINT('',(3.46944695195361E-18,-0.01,0.009));
#349=CARTESIAN_POINT('',(-0.01,-0.01,0.009));
#350=CARTESIAN_POINT('',(-0.01,-0.01,0.009));
#351=CARTESIAN_POINT('',(3.46944695195361E-18,-0.01,0.009));
#352=CARTESIAN_POINT('',(-0.01,0.,0.009));
#353=CARTESIAN_POINT('',(-0.01,0.,0.009));
#354=CARTESIAN_POINT('',(0.,0.,0.009));
#355=CARTESIAN_POINT('',(0.,0.0045,0.009));
#356=CARTESIAN_POINT('',(0.,0.0045,-0.0173));
#357=MECHANICAL_DESIGN_GEOMETRIC_PRESENTATION_REPRESENTATION('',(#218),
#358);
#358=(
GEOMETRIC_REPRESENTATION_CONTEXT(3)
GLOBAL_UNCERTAINTY_ASSIGNED_CONTEXT((#359))
GLOBAL_UNIT_ASSIGNED_CONTEXT((#362,#361,#360))
REPRESENTATION_CONTEXT('Part 1','TOP_LEVEL_ASSEMBLY_PART')
);
#359=UNCERTAINTY_MEASURE_WITH_UNIT(LENGTH_MEASURE(1.E-8),#362,
'DISTANCE_ACCURACY_VALUE','Maximum Tolerance applied to model');
#360=(
NAMED_UNIT(*)
SI_UNIT($,.STERADIAN.)
SOLID_ANGLE_UNIT()
);
#361=(
NAMED_UNIT(*)
PLANE_ANGLE_UNIT()
SI_UNIT($,.RADIAN.)
);
#362=(
LENGTH_UNIT()
NAMED_UNIT(*)
SI_UNIT($,.METRE.)
);
#363=PRODUCT_DEFINITION_SHAPE('','',#364);
#364=PRODUCT_DEFINITION('','',#366,#365);
#365=PRODUCT_DEFINITION_CONTEXT('',#372,'design');
#366=PRODUCT_DEFINITION_FORMATION_WITH_SPECIFIED_SOURCE('','',#368,
 .NOT_KNOWN.);
#367=PRODUCT_RELATED_PRODUCT_CATEGORY('','',(#368));
#368=PRODUCT('Part 1','Part 1','Part 1',(#370));
#369=PRODUCT_CATEGORY('','');
#370=PRODUCT_CONTEXT('',#372,'mechanical');
#371=APPLICATION_PROTOCOL_DEFINITION('international standard',
'ap242_managed_model_based_3d_engineering',2020,#372);
#372=APPLICATION_CONTEXT('managed model based 3d engineering');
ENDSEC;
END-ISO-10303-21;
